<svg xmlns="http://www.w3.org/2000/svg" version="1.1" xmlns:xlink="http://www.w3.org/1999/xlink" width="1000" height="1000"><style>
    #light-icon {
      display: inline;
    }
    #dark-icon {
      display: none;
    }

    @media (prefers-color-scheme: dark) {
      #light-icon {
        display: none;
      }
      #dark-icon {
        display: inline;
      }
    }
  </style><g id="light-icon"><svg xmlns="http://www.w3.org/2000/svg" version="1.1" xmlns:xlink="http://www.w3.org/1999/xlink" width="1000" height="1000"><g clip-path="url(#SvgjsClipPath1098)"><rect width="1000" height="1000" fill="#ffffff"></rect><g transform="matrix(1.6326530612244898,0,0,1.6326530612244898,100,150.61224489795916)"><svg xmlns="http://www.w3.org/2000/svg" version="1.1" xmlns:xlink="http://www.w3.org/1999/xlink" width="490" height="428"><svg version="1.1" xmlns="http://www.w3.org/2000/svg" width="490" height="428">
<path d="M0 0 C161.7 0 323.4 0 490 0 C490 141.24 490 282.48 490 428 C328.3 428 166.6 428 0 428 C0 286.76 0 145.52 0 0 Z " fill="#FEFEFE" transform="translate(0,0)"></path>
<path d="M0 0 C0 3.63 0 7.26 0 11 C-1.43472656 11.02578125 -2.86945313 11.0515625 -4.34765625 11.078125 C-6.25263359 11.13442975 -8.15758034 11.19177654 -10.0625 11.25 C-11.47692383 11.27126953 -11.47692383 11.27126953 -12.91992188 11.29296875 C-19.11502396 11.50882597 -22.92637787 12.38362375 -28 16 C-32.71282442 21.0848895 -33.14953392 25.10361289 -33.15821838 31.80168152 C-33.16314804 32.6026828 -33.1680777 33.40368408 -33.17315674 34.22895813 C-33.18857279 36.93022441 -33.19690446 39.63146715 -33.20532227 42.33276367 C-33.21503491 44.29554358 -33.22518023 46.25832138 -33.23572445 48.22109699 C-33.26281708 53.48759728 -33.28397093 58.75410594 -33.30391693 64.02063751 C-33.32351204 68.95864136 -33.3484332 73.89661263 -33.3729248 78.83459473 C-33.44148265 93.28553869 -33.50146476 107.73652231 -33.5625 122.1875 C-33.706875 154.465625 -33.85125 186.74375 -34 220 C61.7 220 157.4 220 256 220 C255.896875 187.78375 255.79375 155.5675 255.6875 122.375 C255.65015747 107.10806885 255.65015747 107.10806885 255.61206055 91.53271484 C255.57550267 82.4210882 255.57550267 82.4210882 255.5349884 73.30947876 C255.51702839 69.24639731 255.5074406 65.18338797 255.50288391 61.12026978 C255.49680016 55.93883527 255.47649001 50.75764056 255.44583857 45.57629514 C255.43701426 43.67391229 255.43320524 41.77149807 255.43496072 39.86909556 C255.43661347 37.29993015 255.41996134 34.73150852 255.39872742 32.16244507 C255.40357556 31.41751108 255.40842371 30.6725771 255.41341877 29.90506935 C255.34943787 25.20376578 254.46356087 22.00116398 252 18 C245.91896409 12.08331641 239.18927221 11.66647972 231.125 11.375 C230.24585938 11.33632812 229.36671875 11.29765625 228.4609375 11.2578125 C226.30761207 11.16418966 224.15383586 11.08103541 222 11 C222 7.37 222 3.74 222 0 C225.79289705 -0.13610875 229.58081791 -0.23465922 233.375 -0.3125 C234.43589844 -0.35439453 235.49679687 -0.39628906 236.58984375 -0.43945312 C245.67168282 -0.57874514 252.15760034 1.93510314 259.375 7.375 C265.32613534 13.32613534 268.21009149 20.50235125 268.25816262 28.93059146 C268.25233693 29.67963123 268.24651125 30.428671 268.24050903 31.20040894 C268.24307231 32.41478848 268.24307231 32.41478848 268.24568737 33.65370095 C268.24897303 36.35760385 268.23799382 39.0612568 268.22705078 41.76513672 C268.22648647 43.70688369 268.22680362 45.64863109 268.22793579 47.59037781 C268.22850952 52.85642092 268.2167519 58.12237289 268.20278788 63.38839483 C268.1902839 68.89370098 268.18911028 74.39900923 268.18673706 79.90432739 C268.18052132 90.3270669 268.1641092 100.74976444 268.14403808 111.17248547 C268.12168203 123.03938208 268.11068639 134.90628069 268.10064721 146.77319312 C268.07974308 171.18215201 268.04456524 195.59107365 268 220 C269.27214355 219.99154053 270.54428711 219.98308105 271.85498047 219.97436523 C277.29984976 219.93815806 281.69065121 220.88100968 285.80078125 224.65234375 C289.9928756 229.38470802 291.30997609 232.84579774 291.21484375 239.3359375 C290.52936088 247.83592507 288.1460758 255.21459257 283 262 C282.56558594 262.65484375 282.13117188 263.3096875 281.68359375 263.984375 C275.8774792 271.8067121 266.58634524 276.98041687 257.02049017 278.46123576 C249.08008993 279.15845688 241.11839969 279.09547474 233.15436578 279.0311383 C229.53733721 279.01076539 225.92057886 279.03697469 222.30358887 279.05690002 C215.23955733 279.08844394 208.17622799 279.07732423 201.11220132 279.05057388 C195.36703631 279.02968616 189.62206288 279.02498558 183.87686539 279.0315876 C182.64559385 279.03299331 182.64559385 279.03299331 181.38944814 279.03442742 C179.72140688 279.03641312 178.05336566 279.03844113 176.38532449 279.04051096 C160.78359665 279.05810591 145.18225298 279.02762753 129.58060659 278.97989214 C116.2191161 278.94005441 102.85809639 278.93925824 89.49658203 278.9675293 C73.94375055 279.00040676 58.39118674 279.01065451 42.8383342 278.98398215 C41.17739053 278.98118238 39.51644683 278.97840454 37.85550308 278.97564888 C37.038488 278.97427396 36.22147291 278.97289905 35.37969979 278.97148247 C29.64626636 278.96331596 23.91298026 278.97092693 18.17956161 278.98463249 C11.18555839 279.00084237 4.19212082 278.99157721 -2.80178966 278.95061522 C-6.36435019 278.93034792 -9.926007 278.92083887 -13.48858261 278.94210434 C-40.88648506 279.09083808 -40.88648506 279.09083808 -52 271 C-52.74064257 270.48113189 -53.48128513 269.96226377 -54.24437141 269.42767239 C-62.14811333 263.563114 -67.38295393 253.56043026 -69 244 C-69.64847789 236.79232774 -69.43910776 231.84093127 -65 226 C-61.25309723 222.15291267 -58.04067199 220.12585563 -52.640625 219.90234375 C-51.45726562 219.91974609 -51.45726562 219.91974609 -50.25 219.9375 C-49.45078125 219.94652344 -48.6515625 219.95554687 -47.828125 219.96484375 C-46.92320313 219.98224609 -46.92320313 219.98224609 -46 220 C-46.00368717 218.99393267 -46.00737434 217.98786533 -46.01117325 216.95131111 C-46.10003015 192.45467295 -46.16573088 167.95805573 -46.20724869 143.46129036 C-46.22786082 131.61476025 -46.25595575 119.76833671 -46.30175781 107.921875 C-46.34166673 97.5947083 -46.36744262 87.26761879 -46.37635398 76.94037712 C-46.38156182 71.47378665 -46.39377428 66.00741697 -46.42292023 60.54089737 C-46.45015325 55.39123673 -46.45842901 50.24188699 -46.45243073 45.09216118 C-46.45352743 43.20642721 -46.46143411 41.32068241 -46.4768219 39.43501091 C-46.56743243 27.75428079 -46.6091048 16.54983688 -37.8984375 7.60546875 C-26.46290729 -2.06531914 -14.24363687 -0.62229481 0 0 Z " fill="#2F33BD" transform="translate(131,130)"></path>
<path d="M0 0 C1.08308441 -0.00021904 1.08308441 -0.00021904 2.18804932 -0.0004425 C4.57966087 0.00025532 6.97119498 0.00804164 9.36279297 0.01586914 C11.01903236 0.01773378 12.67527231 0.01915747 14.33151245 0.02015686 C18.69465655 0.0239784 23.05776747 0.03380561 27.42089844 0.04486084 C31.87157746 0.05508275 36.32226184 0.05965615 40.77294922 0.06469727 C49.50864155 0.07542819 58.24430688 0.09250027 66.97998047 0.11352539 C66.97998047 3.74352539 66.97998047 7.37352539 66.97998047 11.11352539 C43.87998047 11.11352539 20.77998047 11.11352539 -3.02001953 11.11352539 C-3.02001953 64.90352539 -3.02001953 118.69352539 -3.02001953 174.11352539 C4.56998047 174.11352539 12.15998047 174.11352539 19.97998047 174.11352539 C19.97998047 163.22352539 19.97998047 152.33352539 19.97998047 141.11352539 C29.97998047 137.11352539 29.97998047 137.11352539 33.35498047 136.48852539 C37.19538401 134.47688544 37.98223924 131.70248916 39.34716797 127.69946289 C40.75395683 121.95073312 39.18830571 118.31074159 36.29248047 113.42602539 C35.57511719 112.33741211 35.57511719 112.33741211 34.84326172 111.22680664 C33.97998047 109.11352539 33.97998047 109.11352539 34.75119019 107.17047119 C35.94539581 105.17141872 37.1287527 103.7228502 38.77734375 102.08911133 C39.33777374 101.5288324 39.89820374 100.96855347 40.47561646 100.39129639 C41.0777597 99.79947571 41.67990295 99.20765503 42.30029297 98.59790039 C42.91895233 97.98207092 43.53761169 97.36624146 44.17501831 96.73175049 C46.1470186 94.77092203 48.12586784 92.81717238 50.10498047 90.86352539 C51.44528211 89.53325741 52.78513129 88.20253339 54.12451172 86.87133789 C57.40444636 83.61342389 60.69053989 80.36184006 63.97998047 77.11352539 C66.99396575 78.29174486 69.70181964 79.48018385 72.41748047 81.23852539 C75.78024153 83.17774181 78.04891212 83.68680619 81.97998047 83.11352539 C84.33146567 82.15698904 86.66744035 81.16071337 88.97998047 80.11352539 C89.96998047 80.11352539 90.95998047 80.11352539 91.97998047 80.11352539 C92.17333984 79.3774707 92.36669922 78.64141602 92.56591797 77.88305664 C92.82630859 76.90723633 93.08669922 75.93141602 93.35498047 74.92602539 C93.61021484 73.9630957 93.86544922 73.00016602 94.12841797 72.00805664 C94.97998047 69.11352539 94.97998047 69.11352539 96.97998047 64.11352539 C111.49998047 64.11352539 126.01998047 64.11352539 140.97998047 64.11352539 C145.97998047 78.11352539 145.97998047 78.11352539 145.97998047 80.11352539 C157.74580856 84.30377 161.91925695 82.59567245 173.97998047 77.11352539 C188.82998047 91.96352539 188.82998047 91.96352539 203.97998047 107.11352539 C202.66724951 111.05171826 201.73941654 113.7530728 199.79248047 117.17602539 C198.55606834 119.62116877 197.97149358 120.78253659 198.04248047 123.55102539 C198.35185547 124.39665039 198.66123047 125.24227539 198.97998047 126.11352539 C199.05345703 126.81606445 199.12693359 127.51860352 199.20263672 128.24243164 C199.69490591 131.14347434 200.19423803 132.74398255 201.97998047 135.11352539 C205.83046972 136.93563191 209.60306239 138.14319398 213.70654297 139.23852539 C216.97998047 140.11352539 216.97998047 140.11352539 217.97998047 141.11352539 C218.0684184 143.56182966 218.09526799 145.98173138 218.07763672 148.42993164 C218.0755143 149.52651344 218.0755143 149.52651344 218.073349 150.64524841 C218.06773455 152.98888171 218.05517969 155.33242078 218.04248047 157.67602539 C218.03746733 159.26131047 218.0329041 160.84659705 218.02880859 162.43188477 C218.01860968 166.32583082 217.99903734 170.21957216 217.97998047 174.11352539 C225.56998047 174.11352539 233.15998047 174.11352539 240.97998047 174.11352539 C240.97998047 120.32352539 240.97998047 66.53352539 240.97998047 11.11352539 C217.87998047 11.11352539 194.77998047 11.11352539 170.97998047 11.11352539 C170.97998047 7.48352539 170.97998047 3.85352539 170.97998047 0.11352539 C180.52465533 -0.0024523 190.06908672 -0.09123201 199.61431313 -0.14553547 C204.04683999 -0.17160188 208.47888389 -0.20694514 212.91113281 -0.26367188 C217.19055282 -0.3180983 221.46950904 -0.34791738 225.7492485 -0.36086082 C227.37994053 -0.37008175 229.01060788 -0.38808859 230.64110184 -0.41512489 C232.92990716 -0.45155914 235.21680957 -0.45641435 237.50585938 -0.45410156 C238.80713776 -0.46520462 240.10841614 -0.47630768 241.4491272 -0.48774719 C246.11437627 0.3067028 247.65497329 1.79582923 250.97998047 5.11352539 C253.40809269 8.75569373 253.23555148 10.46524683 253.24740601 14.80511475 C253.25193712 15.48877586 253.25646823 16.17243697 253.26113665 16.87681508 C253.27381994 19.17290918 253.27215777 21.46876727 253.27050781 23.76489258 C253.27649074 25.40913194 253.28329574 27.05336849 253.29086304 28.69760132 C253.30855725 33.16884043 253.31321994 37.64000303 253.31449461 42.11127377 C253.31639257 45.84373575 253.32374917 49.57617988 253.3308388 53.308635 C253.34713441 62.11665452 253.3520068 70.92463315 253.35058594 79.73266602 C253.34938513 88.81617204 253.37047207 97.89944022 253.40207326 106.98288608 C253.42823774 114.7817289 253.43895312 122.58049409 253.43767512 130.37938046 C253.4371654 135.03707052 253.44285331 139.69454941 253.46403122 144.35219574 C253.48341576 148.73533285 253.48353669 153.11805748 253.46899796 157.50120926 C253.46690881 159.10760984 253.47161713 160.71403625 253.48371887 162.32039261 C253.49920406 164.51874421 253.48984352 166.71567939 253.47445679 168.91400146 C253.47554632 170.14254223 253.47663586 171.37108299 253.47775841 172.63685226 C252.82719853 177.18061337 251.68311037 179.38011756 248.97998047 183.11352539 C243.9392865 186.79928254 238.84525348 186.53926914 232.8458252 186.50120544 C231.8281275 186.50659098 230.81042981 186.51197652 229.7618928 186.51752526 C226.35334573 186.53182748 222.94518577 186.52469537 219.53662109 186.51757812 C217.09229724 186.52328044 214.64797604 186.53024416 212.20365906 186.53837585 C206.25473252 186.55447114 200.30595797 186.55640511 194.35702455 186.55116295 C189.52168162 186.54711944 184.68636988 186.54856695 179.85102844 186.55391121 C179.16250877 186.55465963 178.4739891 186.55540805 177.76460519 186.55617915 C176.36583578 186.55771065 174.96706637 186.55924899 173.56829697 186.56079412 C160.45589516 186.57451691 147.34355304 186.56908277 134.23115259 186.55760891 C122.23688827 186.54767405 110.24277814 186.5606219 98.2485376 186.5845431 C85.92890742 186.60892796 73.60934909 186.61854366 61.28969526 186.61189038 C54.37466922 186.60839712 47.45976182 186.61063727 40.54475403 186.6281414 C34.04403181 186.64439299 27.54355661 186.63969138 21.0428257 186.62083626 C18.65553151 186.61714144 16.26821562 186.62028468 13.88094139 186.63072205 C10.62499663 186.64387181 7.37003768 186.63243693 4.11413574 186.61473083 C3.16685938 186.62433584 2.21958302 186.63394085 1.24360132 186.64383692 C-4.30109318 186.58168922 -7.7607622 186.02185071 -12.02001953 182.11352539 C-14.90820042 177.72764945 -15.39982629 174.25567099 -15.42115784 169.06117249 C-15.42795451 168.3749481 -15.43475118 167.68872372 -15.4417538 166.98170465 C-15.4606615 164.69484069 -15.45829328 162.40851524 -15.45581055 160.12158203 C-15.464792 158.47689631 -15.47500114 156.83221691 -15.48634338 155.18754578 C-15.51280507 150.72886163 -15.51987513 146.27035028 -15.52179074 141.8115952 C-15.52392518 139.0244634 -15.53033359 136.23737536 -15.53828239 133.45025444 C-15.56602089 123.72283011 -15.57828951 113.99552898 -15.57592773 104.26806641 C-15.57412476 95.20652693 -15.60579724 86.14552287 -15.65315872 77.0841189 C-15.69240205 69.29794011 -15.70847879 61.51193624 -15.70656151 53.72565931 C-15.70579717 49.07796765 -15.71431602 44.43075223 -15.74609566 39.78315926 C-15.77516981 35.41212745 -15.77535741 31.04202625 -15.75354576 26.67096138 C-15.75041213 25.06938821 -15.75747444 23.46775677 -15.77562714 21.86628342 C-15.91976303 8.26671934 -15.91976303 8.26671934 -12.09947205 3.66844177 C-8.16603179 -0.00769307 -5.3571021 -0.00907983 0 0 Z " fill="#3135BE" transform="translate(123.02001953125,152.886474609375)"></path>
<path d="M0 0 C2.12018013 -0.36914349 2.12018013 -0.36914349 4.7961731 -0.36076355 C6.31484482 -0.36694954 6.31484482 -0.36694954 7.86419678 -0.3732605 C9.53654388 -0.35708176 9.53654388 -0.35708176 11.24267578 -0.34057617 C12.4133963 -0.34101425 13.58411682 -0.34145233 14.79031372 -0.34190369 C18.00512443 -0.34016874 21.21954604 -0.32509825 24.43427896 -0.30418181 C27.79217757 -0.28545894 31.15008338 -0.28366805 34.50802612 -0.28010559 C40.86874132 -0.27077216 47.22930228 -0.24614098 53.58994949 -0.21605712 C60.83046511 -0.18255335 68.07098801 -0.16603726 75.31156182 -0.15097082 C90.2077939 -0.11959243 105.10388154 -0.06680689 120 0 C120.04753418 0.74185547 120.09506836 1.48371094 120.14404297 2.24804688 C120.25449951 3.71854492 120.25449951 3.71854492 120.3671875 5.21875 C120.46942627 6.6718457 120.46942627 6.6718457 120.57373047 8.15429688 C121.21523406 12.43686607 122.84936635 16.00477877 126 19 C132.85242671 23.0286005 140.09475026 22.45497974 147.83984375 22.43359375 C149.29041283 22.43816179 150.74097975 22.44346921 152.19154358 22.44947815 C155.22340722 22.45838406 158.25500709 22.4560152 161.28686523 22.44604492 C165.15480124 22.43455892 169.02182376 22.45477277 172.88963985 22.48396206 C175.88299759 22.50238826 178.87613899 22.50201894 181.86953926 22.49632454 C183.2947677 22.4961721 184.72001153 22.5021517 186.14518547 22.51461601 C194.13217281 22.57463727 200.25772801 22.52845274 207 18 C210.42117904 13.70159556 211.18084532 10.69672858 211.59765625 5.25390625 C211.67636963 4.26849854 211.75508301 3.28309082 211.83618164 2.26782227 C211.8902417 1.51944092 211.94430176 0.77105957 212 0 C227.46382469 -0.07004311 242.92763754 -0.1229651 258.39158344 -0.15543652 C265.57157503 -0.1709135 272.75146811 -0.19201875 279.93139648 -0.22631836 C286.18853593 -0.25619545 292.44560406 -0.27556896 298.70281285 -0.28226548 C302.01680872 -0.28618068 305.33055263 -0.29696488 308.64449501 -0.31719017 C312.34165335 -0.3388635 316.0383844 -0.3419711 319.7355957 -0.34057617 C320.83754776 -0.351362 321.93949982 -0.36214783 323.07484436 -0.3732605 C324.58295685 -0.36707451 324.58295685 -0.36707451 326.12153625 -0.36076355 C326.9963178 -0.36352893 327.87109934 -0.36629431 328.77238941 -0.36914349 C331 0 331 0 332.78146648 1.29598522 C334.90842406 4.27035326 334.42804432 7.53947271 334 11 C332.45372261 18.99606505 328.37440748 24.65486487 321.94140625 29.57421875 C318.08370101 32.11928327 315.70348496 33.05930301 311 34 C311 26.41 311 18.82 311 11 C299.45 11 287.9 11 276 11 C276 18.59 276 26.18 276 34 C272.37 34 268.74 34 265 34 C265 26.41 265 18.82 265 11 C253.45 11 241.9 11 230 11 C230 18.92 230 26.84 230 35 C203.18327543 35.06948318 176.36657259 35.12300249 149.54977608 35.15543652 C137.0979315 35.17089729 124.64614393 35.1919718 112.19433594 35.22631836 C101.33979245 35.25624478 90.48529026 35.27558074 79.63070667 35.28226548 C73.88470464 35.28617222 68.13882073 35.29533733 62.3928566 35.31719017 C56.98058576 35.33760645 51.5684813 35.34382337 46.15617561 35.33932304 C44.17369621 35.34014594 42.19121104 35.34608081 40.20876503 35.35761642 C15.45244147 35.49456115 15.45244147 35.49456115 5.20703125 25.5234375 C-0.25518321 19.2781445 -2.59742532 13.42329261 -2.37109375 5.12890625 C-2 3 -2 3 0 0 Z " fill="#FBFBFD" transform="translate(76,362)"></path>
<path d="M0 0 C23.1 0 46.2 0 70 0 C70 19.47 70 38.94 70 59 C60.43 59 50.86 59 41 59 C41 70.22 41 81.44 41 93 C21.86 93 2.72 93 -17 93 C-17 114.12 -17 135.24 -17 157 C-20.96 157 -24.92 157 -29 157 C-29 132.25 -29 107.5 -29 82 C-9.86 82 9.28 82 29 82 C29 74.08 29 66.16 29 58 C19.43 58 9.86 58 0 58 C0 38.86 0 19.72 0 0 Z " fill="#3135BE" transform="translate(300,48)"></path>
<path d="M0 0 C23.1 0 46.2 0 70 0 C70 19.14 70 38.28 70 58 C60.43 58 50.86 58 41 58 C41 65.92 41 73.84 41 82 C60.14 82 79.28 82 99 82 C99 106.75 99 131.5 99 157 C95.04 157 91.08 157 87 157 C87 135.88 87 114.76 87 93 C67.86 93 48.72 93 29 93 C29 81.78 29 70.56 29 59 C19.43 59 9.86 59 0 59 C0 39.53 0 20.06 0 0 Z " fill="#3135BE" transform="translate(114,48)"></path>
<path d="M0 0 C23.1 0 46.2 0 70 0 C70 19.14 70 38.28 70 58 C60.43 58 50.86 58 41 58 C41 90.67 41 123.34 41 157 C37.04 157 33.08 157 29 157 C29 124.33 29 91.66 29 58 C19.43 58 9.86 58 0 58 C0 38.86 0 19.72 0 0 Z " fill="#3135BE" transform="translate(207,48)"></path>
<path d="M0 0 C1.084021 0.00523682 2.16804199 0.01047363 3.28491211 0.01586914 C4.45473633 0.0190918 5.62456055 0.02231445 6.82983398 0.02563477 C8.0615332 0.03401367 9.29323242 0.04239258 10.56225586 0.05102539 C12.41560547 0.05779297 12.41560547 0.05779297 14.30639648 0.06469727 C17.37089703 0.07652931 20.43530307 0.09301366 23.49975586 0.11352539 C24.14666508 1.71725849 24.7922435 3.32152845 25.43725586 4.92602539 C25.97672852 6.26600586 25.97672852 6.26600586 26.52709961 7.63305664 C27.23589072 9.44061629 27.88578056 11.27159949 28.49975586 13.11352539 C30.33218543 14.25341187 30.33218543 14.25341187 32.61303711 15.12133789 C33.44899414 15.4680957 34.28495117 15.81485352 35.14624023 16.17211914 C36.02602539 16.5240332 36.90581055 16.87594727 37.81225586 17.23852539 C38.68043945 17.59817383 39.54862305 17.95782227 40.44311523 18.32836914 C45.84590455 20.62239955 45.84590455 20.62239955 51.49975586 22.11352539 C53.78570747 21.11242984 53.78570747 21.11242984 55.99975586 19.61352539 C59.97847295 17.05188562 59.97847295 17.05188562 62.39306641 17.33740234 C66.67111257 18.91347243 69.62931104 22.64602565 72.81225586 25.80102539 C73.56571289 26.50936523 74.31916992 27.21770508 75.09545898 27.94750977 C80.47901994 33.26236529 80.47901994 33.26236529 80.58178711 37.48071289 C79.49975586 40.11352539 79.49975586 40.11352539 77.87475586 42.55102539 C76.37717129 45.34197846 76.24926344 46.93482618 76.84350586 50.02758789 C77.98515313 53.65639527 79.71562418 57.01987851 81.35522461 60.44555664 C82.77575568 63.75689698 83.26145502 66.53901287 83.49975586 70.11352539 C85.38777669 70.56925456 87.27579753 71.02498372 89.16381836 71.48071289 C91.97638319 72.24264517 94.73534714 73.19205582 97.49975586 74.11352539 C97.49975586 82.36352539 97.49975586 90.61352539 97.49975586 99.11352539 C89.57975586 99.11352539 81.65975586 99.11352539 73.49975586 99.11352539 C73.54100586 96.37040039 73.58225586 93.62727539 73.62475586 90.80102539 C73.70431043 71.51768871 68.14892937 56.01879793 54.74975586 41.80102539 C41.25273077 28.98193306 25.40453276 24.3663901 7.21484375 24.58984375 C-0.6241241 24.85903822 -7.30206212 25.822049 -14.50024414 29.11352539 C-15.44641602 29.53762695 -16.39258789 29.96172852 -17.36743164 30.39868164 C-24.41070815 33.90080943 -29.95272099 38.58503319 -35.50024414 44.11352539 C-36.45737305 45.03584961 -36.45737305 45.03584961 -37.43383789 45.97680664 C-49.11324986 58.12443557 -52.77162801 74.14095706 -52.68774414 90.48852539 C-52.62586914 93.33477539 -52.56399414 96.18102539 -52.50024414 99.11352539 C-60.42024414 99.11352539 -68.34024414 99.11352539 -76.50024414 99.11352539 C-76.50024414 90.86352539 -76.50024414 82.61352539 -76.50024414 74.11352539 C-67.50024414 70.73852539 -67.50024414 70.73852539 -62.50024414 70.11352539 C-62.40227539 69.56825195 -62.30430664 69.02297852 -62.20336914 68.46118164 C-61.35907392 64.20331348 -60.29864622 60.42010396 -58.43774414 56.48852539 C-56.66557224 52.63655929 -55.50024414 49.42803936 -55.50024414 45.11352539 C-56.35291604 43.26584632 -56.35291604 43.26584632 -57.50024414 41.48852539 C-59.50024414 38.11352539 -59.50024414 38.11352539 -59.34130859 35.65405273 C-57.80456234 31.01214228 -54.10543573 28.10538517 -50.68774414 24.73852539 C-49.96264648 23.98958008 -49.23754883 23.24063477 -48.49047852 22.46899414 C-47.78600586 21.76645508 -47.0815332 21.06391602 -46.35571289 20.34008789 C-45.7127124 19.6963623 -45.06971191 19.05263672 -44.40722656 18.3894043 C-42.50024414 17.11352539 -42.50024414 17.11352539 -40.38427734 17.34887695 C-37.62404231 18.46913821 -35.08887918 19.90511883 -32.50024414 21.37133789 C-30.01524187 22.2935067 -28.95972304 22.02426312 -26.50024414 21.11352539 C-24.61140448 20.15253679 -22.72456933 19.18703886 -20.85571289 18.18774414 C-18.50024414 17.11352539 -18.50024414 17.11352539 -15.67602539 16.38305664 C-12.59381245 15.57238114 -10.19743112 14.82636921 -7.50024414 13.11352539 C-5.41877036 9.24867835 -4.46641764 5.37112993 -3.50024414 1.11352539 C-2.50024414 0.11352539 -2.50024414 0.11352539 0 0 Z " fill="#FBFBFD" transform="translate(231.500244140625,227.886474609375)"></path>
<path d="M0 0 C12.79565313 7.13298055 22.72742409 17.88455912 27.328125 31.96484375 C29.25778107 40.33905631 29.40559366 50.40496911 27.328125 58.71484375 C19.408125 58.71484375 11.488125 58.71484375 3.328125 58.71484375 C3.658125 56.40484375 3.988125 54.09484375 4.328125 51.71484375 C5.13563064 42.31600763 3.42303609 35.50472655 -2.296875 27.96484375 C-7.90091148 22.02871622 -13.95854695 19.52248573 -22.03833008 19.17358398 C-30.28417114 19.09603689 -36.37093065 19.76190113 -42.5546875 25.4453125 C-48.37102608 31.54151675 -51.86784613 37.82158366 -51.984375 46.33984375 C-51.86351748 50.57621789 -51.27889335 54.46571533 -50.671875 58.71484375 C-58.591875 58.71484375 -66.511875 58.71484375 -74.671875 58.71484375 C-77.78465068 46.26374101 -76.03742446 33.01371004 -70.09375 21.71484375 C-61.94236562 8.20263901 -50.65392764 0.42204272 -35.671875 -4.28515625 C-24.21375139 -8.10453079 -10.50885019 -5.05469549 0 0 Z " fill="#FBFBFD" transform="translate(265.671875,268.28515625)"></path>
<path d="M0 0 C15.18 0 30.36 0 46 0 C46 11.55 46 23.1 46 35 C30.82 35 15.64 35 0 35 C0 23.45 0 11.9 0 0 Z " fill="#FBFBFE" transform="translate(312,60)"></path>
<path d="M0 0 C15.18 0 30.36 0 46 0 C46 11.55 46 23.1 46 35 C30.82 35 15.64 35 0 35 C0 23.45 0 11.9 0 0 Z " fill="#FCFCFE" transform="translate(219,60)"></path>
<path d="M0 0 C15.18 0 30.36 0 46 0 C46 11.55 46 23.1 46 35 C30.82 35 15.64 35 0 35 C0 23.45 0 11.9 0 0 Z " fill="#FBFBFE" transform="translate(126,60)"></path>
<path d="M0 0 C4.63072381 2.89798566 7.98146416 5.45039213 9.515625 10.87109375 C10.1230009 16.08051011 10.12859706 20.20759402 8.30078125 25.16796875 C4.41646729 28.93787796 1.39195996 28.65568544 -3.8828125 28.69140625 C-5.07132813 28.66820312 -6.25984375 28.645 -7.484375 28.62109375 C-8.67289063 28.64429688 -9.86140625 28.6675 -11.0859375 28.69140625 C-19.70151639 28.63306147 -19.70151639 28.63306147 -23.265625 25.1640625 C-25.2910383 19.69155157 -25.62471371 14.35617386 -23.7890625 8.74609375 C-19.3453302 0.08268289 -8.93562784 -4.06037177 0 0 Z " fill="#FBFBFD" transform="translate(249.484375,299.12890625)"></path>
<path d="M0 0 C23.1 0 46.2 0 70 0 C70 8 70 8 68.88549805 9.97573853 C66.14558874 11.4641429 63.94362099 11.38155998 60.83203125 11.38818359 C59.56061279 11.39764008 58.28919434 11.40709656 56.97924805 11.4168396 C55.59032887 11.41146991 54.20141252 11.40531696 52.8125 11.3984375 C51.38907726 11.40045839 49.96565553 11.40336995 48.54223633 11.40713501 C45.55963276 11.41155771 42.57729879 11.40512935 39.59472656 11.39111328 C35.77114909 11.37402103 31.94820334 11.38386255 28.12464905 11.40183067 C25.18553913 11.41267019 22.24657903 11.40922149 19.3074646 11.4014473 C17.89765346 11.39944573 16.48782872 11.40190306 15.07803345 11.40888596 C13.10801452 11.41650223 11.13794791 11.40283579 9.16796875 11.38818359 C8.04672607 11.38579681 6.9254834 11.38341003 5.77026367 11.38095093 C3 11 3 11 1.11450195 9.97573853 C0 8 0 8 0 0 Z " fill="#FDFDFE" transform="translate(207,362)"></path>
<path d="M0 0 C7.92 0 15.84 0 24 0 C24 3.96 24 7.92 24 12 C16.08 12 8.16 12 0 12 C0 8.04 0 4.08 0 0 Z " fill="#3B3FC1" transform="translate(323,71)"></path>
<path d="M0 0 C7.92 0 15.84 0 24 0 C24 3.96 24 7.92 24 12 C16.08 12 8.16 12 0 12 C0 8.04 0 4.08 0 0 Z " fill="#3B3FC1" transform="translate(230,71)"></path>
<path d="M0 0 C7.92 0 15.84 0 24 0 C24 3.96 24 7.92 24 12 C16.08 12 8.16 12 0 12 C0 8.04 0 4.08 0 0 Z " fill="#3B3FC1" transform="translate(137,71)"></path>
<path d="M0 0 C3.96 0 7.92 0 12 0 C12 3.96 12 7.92 12 12 C8.04 12 4.08 12 0 12 C0 8.04 0 4.08 0 0 Z " fill="#EEEFF9" transform="translate(364,385)"></path>
<path d="M0 0 C3.96 0 7.92 0 12 0 C12 3.96 12 7.92 12 12 C8.04 12 4.08 12 0 12 C0 8.04 0 4.08 0 0 Z " fill="#EFEFFA" transform="translate(317,385)"></path>
</svg></svg></g></g><defs><clipPath id="SvgjsClipPath1098"><rect width="1000" height="1000" x="0" y="0" rx="500" ry="500"></rect></clipPath></defs></svg></g><g id="dark-icon"><svg xmlns="http://www.w3.org/2000/svg" version="1.1" xmlns:xlink="http://www.w3.org/1999/xlink" width="1000" height="1000"><g><g transform="matrix(2.0408163265306123,0,0,2.0408163265306123,0,63.265306122448976)"><svg xmlns="http://www.w3.org/2000/svg" version="1.1" xmlns:xlink="http://www.w3.org/1999/xlink" width="490" height="428"><svg version="1.1" xmlns="http://www.w3.org/2000/svg" width="490" height="428">
<path d="M0 0 C161.7 0 323.4 0 490 0 C490 141.24 490 282.48 490 428 C328.3 428 166.6 428 0 428 C0 286.76 0 145.52 0 0 Z " fill="#FEFEFE" transform="translate(0,0)"></path>
<path d="M0 0 C0 3.63 0 7.26 0 11 C-1.43472656 11.02578125 -2.86945313 11.0515625 -4.34765625 11.078125 C-6.25263359 11.13442975 -8.15758034 11.19177654 -10.0625 11.25 C-11.47692383 11.27126953 -11.47692383 11.27126953 -12.91992188 11.29296875 C-19.11502396 11.50882597 -22.92637787 12.38362375 -28 16 C-32.71282442 21.0848895 -33.14953392 25.10361289 -33.15821838 31.80168152 C-33.16314804 32.6026828 -33.1680777 33.40368408 -33.17315674 34.22895813 C-33.18857279 36.93022441 -33.19690446 39.63146715 -33.20532227 42.33276367 C-33.21503491 44.29554358 -33.22518023 46.25832138 -33.23572445 48.22109699 C-33.26281708 53.48759728 -33.28397093 58.75410594 -33.30391693 64.02063751 C-33.32351204 68.95864136 -33.3484332 73.89661263 -33.3729248 78.83459473 C-33.44148265 93.28553869 -33.50146476 107.73652231 -33.5625 122.1875 C-33.706875 154.465625 -33.85125 186.74375 -34 220 C61.7 220 157.4 220 256 220 C255.896875 187.78375 255.79375 155.5675 255.6875 122.375 C255.65015747 107.10806885 255.65015747 107.10806885 255.61206055 91.53271484 C255.57550267 82.4210882 255.57550267 82.4210882 255.5349884 73.30947876 C255.51702839 69.24639731 255.5074406 65.18338797 255.50288391 61.12026978 C255.49680016 55.93883527 255.47649001 50.75764056 255.44583857 45.57629514 C255.43701426 43.67391229 255.43320524 41.77149807 255.43496072 39.86909556 C255.43661347 37.29993015 255.41996134 34.73150852 255.39872742 32.16244507 C255.40357556 31.41751108 255.40842371 30.6725771 255.41341877 29.90506935 C255.34943787 25.20376578 254.46356087 22.00116398 252 18 C245.91896409 12.08331641 239.18927221 11.66647972 231.125 11.375 C230.24585938 11.33632812 229.36671875 11.29765625 228.4609375 11.2578125 C226.30761207 11.16418966 224.15383586 11.08103541 222 11 C222 7.37 222 3.74 222 0 C225.79289705 -0.13610875 229.58081791 -0.23465922 233.375 -0.3125 C234.43589844 -0.35439453 235.49679687 -0.39628906 236.58984375 -0.43945312 C245.67168282 -0.57874514 252.15760034 1.93510314 259.375 7.375 C265.32613534 13.32613534 268.21009149 20.50235125 268.25816262 28.93059146 C268.25233693 29.67963123 268.24651125 30.428671 268.24050903 31.20040894 C268.24307231 32.41478848 268.24307231 32.41478848 268.24568737 33.65370095 C268.24897303 36.35760385 268.23799382 39.0612568 268.22705078 41.76513672 C268.22648647 43.70688369 268.22680362 45.64863109 268.22793579 47.59037781 C268.22850952 52.85642092 268.2167519 58.12237289 268.20278788 63.38839483 C268.1902839 68.89370098 268.18911028 74.39900923 268.18673706 79.90432739 C268.18052132 90.3270669 268.1641092 100.74976444 268.14403808 111.17248547 C268.12168203 123.03938208 268.11068639 134.90628069 268.10064721 146.77319312 C268.07974308 171.18215201 268.04456524 195.59107365 268 220 C269.27214355 219.99154053 270.54428711 219.98308105 271.85498047 219.97436523 C277.29984976 219.93815806 281.69065121 220.88100968 285.80078125 224.65234375 C289.9928756 229.38470802 291.30997609 232.84579774 291.21484375 239.3359375 C290.52936088 247.83592507 288.1460758 255.21459257 283 262 C282.56558594 262.65484375 282.13117188 263.3096875 281.68359375 263.984375 C275.8774792 271.8067121 266.58634524 276.98041687 257.02049017 278.46123576 C249.08008993 279.15845688 241.11839969 279.09547474 233.15436578 279.0311383 C229.53733721 279.01076539 225.92057886 279.03697469 222.30358887 279.05690002 C215.23955733 279.08844394 208.17622799 279.07732423 201.11220132 279.05057388 C195.36703631 279.02968616 189.62206288 279.02498558 183.87686539 279.0315876 C182.64559385 279.03299331 182.64559385 279.03299331 181.38944814 279.03442742 C179.72140688 279.03641312 178.05336566 279.03844113 176.38532449 279.04051096 C160.78359665 279.05810591 145.18225298 279.02762753 129.58060659 278.97989214 C116.2191161 278.94005441 102.85809639 278.93925824 89.49658203 278.9675293 C73.94375055 279.00040676 58.39118674 279.01065451 42.8383342 278.98398215 C41.17739053 278.98118238 39.51644683 278.97840454 37.85550308 278.97564888 C37.038488 278.97427396 36.22147291 278.97289905 35.37969979 278.97148247 C29.64626636 278.96331596 23.91298026 278.97092693 18.17956161 278.98463249 C11.18555839 279.00084237 4.19212082 278.99157721 -2.80178966 278.95061522 C-6.36435019 278.93034792 -9.926007 278.92083887 -13.48858261 278.94210434 C-40.88648506 279.09083808 -40.88648506 279.09083808 -52 271 C-52.74064257 270.48113189 -53.48128513 269.96226377 -54.24437141 269.42767239 C-62.14811333 263.563114 -67.38295393 253.56043026 -69 244 C-69.64847789 236.79232774 -69.43910776 231.84093127 -65 226 C-61.25309723 222.15291267 -58.04067199 220.12585563 -52.640625 219.90234375 C-51.45726562 219.91974609 -51.45726562 219.91974609 -50.25 219.9375 C-49.45078125 219.94652344 -48.6515625 219.95554687 -47.828125 219.96484375 C-46.92320313 219.98224609 -46.92320313 219.98224609 -46 220 C-46.00368717 218.99393267 -46.00737434 217.98786533 -46.01117325 216.95131111 C-46.10003015 192.45467295 -46.16573088 167.95805573 -46.20724869 143.46129036 C-46.22786082 131.61476025 -46.25595575 119.76833671 -46.30175781 107.921875 C-46.34166673 97.5947083 -46.36744262 87.26761879 -46.37635398 76.94037712 C-46.38156182 71.47378665 -46.39377428 66.00741697 -46.42292023 60.54089737 C-46.45015325 55.39123673 -46.45842901 50.24188699 -46.45243073 45.09216118 C-46.45352743 43.20642721 -46.46143411 41.32068241 -46.4768219 39.43501091 C-46.56743243 27.75428079 -46.6091048 16.54983688 -37.8984375 7.60546875 C-26.46290729 -2.06531914 -14.24363687 -0.62229481 0 0 Z " fill="#2F33BD" transform="translate(131,130)"></path>
<path d="M0 0 C1.08308441 -0.00021904 1.08308441 -0.00021904 2.18804932 -0.0004425 C4.57966087 0.00025532 6.97119498 0.00804164 9.36279297 0.01586914 C11.01903236 0.01773378 12.67527231 0.01915747 14.33151245 0.02015686 C18.69465655 0.0239784 23.05776747 0.03380561 27.42089844 0.04486084 C31.87157746 0.05508275 36.32226184 0.05965615 40.77294922 0.06469727 C49.50864155 0.07542819 58.24430688 0.09250027 66.97998047 0.11352539 C66.97998047 3.74352539 66.97998047 7.37352539 66.97998047 11.11352539 C43.87998047 11.11352539 20.77998047 11.11352539 -3.02001953 11.11352539 C-3.02001953 64.90352539 -3.02001953 118.69352539 -3.02001953 174.11352539 C4.56998047 174.11352539 12.15998047 174.11352539 19.97998047 174.11352539 C19.97998047 163.22352539 19.97998047 152.33352539 19.97998047 141.11352539 C29.97998047 137.11352539 29.97998047 137.11352539 33.35498047 136.48852539 C37.19538401 134.47688544 37.98223924 131.70248916 39.34716797 127.69946289 C40.75395683 121.95073312 39.18830571 118.31074159 36.29248047 113.42602539 C35.57511719 112.33741211 35.57511719 112.33741211 34.84326172 111.22680664 C33.97998047 109.11352539 33.97998047 109.11352539 34.75119019 107.17047119 C35.94539581 105.17141872 37.1287527 103.7228502 38.77734375 102.08911133 C39.33777374 101.5288324 39.89820374 100.96855347 40.47561646 100.39129639 C41.0777597 99.79947571 41.67990295 99.20765503 42.30029297 98.59790039 C42.91895233 97.98207092 43.53761169 97.36624146 44.17501831 96.73175049 C46.1470186 94.77092203 48.12586784 92.81717238 50.10498047 90.86352539 C51.44528211 89.53325741 52.78513129 88.20253339 54.12451172 86.87133789 C57.40444636 83.61342389 60.69053989 80.36184006 63.97998047 77.11352539 C66.99396575 78.29174486 69.70181964 79.48018385 72.41748047 81.23852539 C75.78024153 83.17774181 78.04891212 83.68680619 81.97998047 83.11352539 C84.33146567 82.15698904 86.66744035 81.16071337 88.97998047 80.11352539 C89.96998047 80.11352539 90.95998047 80.11352539 91.97998047 80.11352539 C92.17333984 79.3774707 92.36669922 78.64141602 92.56591797 77.88305664 C92.82630859 76.90723633 93.08669922 75.93141602 93.35498047 74.92602539 C93.61021484 73.9630957 93.86544922 73.00016602 94.12841797 72.00805664 C94.97998047 69.11352539 94.97998047 69.11352539 96.97998047 64.11352539 C111.49998047 64.11352539 126.01998047 64.11352539 140.97998047 64.11352539 C145.97998047 78.11352539 145.97998047 78.11352539 145.97998047 80.11352539 C157.74580856 84.30377 161.91925695 82.59567245 173.97998047 77.11352539 C188.82998047 91.96352539 188.82998047 91.96352539 203.97998047 107.11352539 C202.66724951 111.05171826 201.73941654 113.7530728 199.79248047 117.17602539 C198.55606834 119.62116877 197.97149358 120.78253659 198.04248047 123.55102539 C198.35185547 124.39665039 198.66123047 125.24227539 198.97998047 126.11352539 C199.05345703 126.81606445 199.12693359 127.51860352 199.20263672 128.24243164 C199.69490591 131.14347434 200.19423803 132.74398255 201.97998047 135.11352539 C205.83046972 136.93563191 209.60306239 138.14319398 213.70654297 139.23852539 C216.97998047 140.11352539 216.97998047 140.11352539 217.97998047 141.11352539 C218.0684184 143.56182966 218.09526799 145.98173138 218.07763672 148.42993164 C218.0755143 149.52651344 218.0755143 149.52651344 218.073349 150.64524841 C218.06773455 152.98888171 218.05517969 155.33242078 218.04248047 157.67602539 C218.03746733 159.26131047 218.0329041 160.84659705 218.02880859 162.43188477 C218.01860968 166.32583082 217.99903734 170.21957216 217.97998047 174.11352539 C225.56998047 174.11352539 233.15998047 174.11352539 240.97998047 174.11352539 C240.97998047 120.32352539 240.97998047 66.53352539 240.97998047 11.11352539 C217.87998047 11.11352539 194.77998047 11.11352539 170.97998047 11.11352539 C170.97998047 7.48352539 170.97998047 3.85352539 170.97998047 0.11352539 C180.52465533 -0.0024523 190.06908672 -0.09123201 199.61431313 -0.14553547 C204.04683999 -0.17160188 208.47888389 -0.20694514 212.91113281 -0.26367188 C217.19055282 -0.3180983 221.46950904 -0.34791738 225.7492485 -0.36086082 C227.37994053 -0.37008175 229.01060788 -0.38808859 230.64110184 -0.41512489 C232.92990716 -0.45155914 235.21680957 -0.45641435 237.50585938 -0.45410156 C238.80713776 -0.46520462 240.10841614 -0.47630768 241.4491272 -0.48774719 C246.11437627 0.3067028 247.65497329 1.79582923 250.97998047 5.11352539 C253.40809269 8.75569373 253.23555148 10.46524683 253.24740601 14.80511475 C253.25193712 15.48877586 253.25646823 16.17243697 253.26113665 16.87681508 C253.27381994 19.17290918 253.27215777 21.46876727 253.27050781 23.76489258 C253.27649074 25.40913194 253.28329574 27.05336849 253.29086304 28.69760132 C253.30855725 33.16884043 253.31321994 37.64000303 253.31449461 42.11127377 C253.31639257 45.84373575 253.32374917 49.57617988 253.3308388 53.308635 C253.34713441 62.11665452 253.3520068 70.92463315 253.35058594 79.73266602 C253.34938513 88.81617204 253.37047207 97.89944022 253.40207326 106.98288608 C253.42823774 114.7817289 253.43895312 122.58049409 253.43767512 130.37938046 C253.4371654 135.03707052 253.44285331 139.69454941 253.46403122 144.35219574 C253.48341576 148.73533285 253.48353669 153.11805748 253.46899796 157.50120926 C253.46690881 159.10760984 253.47161713 160.71403625 253.48371887 162.32039261 C253.49920406 164.51874421 253.48984352 166.71567939 253.47445679 168.91400146 C253.47554632 170.14254223 253.47663586 171.37108299 253.47775841 172.63685226 C252.82719853 177.18061337 251.68311037 179.38011756 248.97998047 183.11352539 C243.9392865 186.79928254 238.84525348 186.53926914 232.8458252 186.50120544 C231.8281275 186.50659098 230.81042981 186.51197652 229.7618928 186.51752526 C226.35334573 186.53182748 222.94518577 186.52469537 219.53662109 186.51757812 C217.09229724 186.52328044 214.64797604 186.53024416 212.20365906 186.53837585 C206.25473252 186.55447114 200.30595797 186.55640511 194.35702455 186.55116295 C189.52168162 186.54711944 184.68636988 186.54856695 179.85102844 186.55391121 C179.16250877 186.55465963 178.4739891 186.55540805 177.76460519 186.55617915 C176.36583578 186.55771065 174.96706637 186.55924899 173.56829697 186.56079412 C160.45589516 186.57451691 147.34355304 186.56908277 134.23115259 186.55760891 C122.23688827 186.54767405 110.24277814 186.5606219 98.2485376 186.5845431 C85.92890742 186.60892796 73.60934909 186.61854366 61.28969526 186.61189038 C54.37466922 186.60839712 47.45976182 186.61063727 40.54475403 186.6281414 C34.04403181 186.64439299 27.54355661 186.63969138 21.0428257 186.62083626 C18.65553151 186.61714144 16.26821562 186.62028468 13.88094139 186.63072205 C10.62499663 186.64387181 7.37003768 186.63243693 4.11413574 186.61473083 C3.16685938 186.62433584 2.21958302 186.63394085 1.24360132 186.64383692 C-4.30109318 186.58168922 -7.7607622 186.02185071 -12.02001953 182.11352539 C-14.90820042 177.72764945 -15.39982629 174.25567099 -15.42115784 169.06117249 C-15.42795451 168.3749481 -15.43475118 167.68872372 -15.4417538 166.98170465 C-15.4606615 164.69484069 -15.45829328 162.40851524 -15.45581055 160.12158203 C-15.464792 158.47689631 -15.47500114 156.83221691 -15.48634338 155.18754578 C-15.51280507 150.72886163 -15.51987513 146.27035028 -15.52179074 141.8115952 C-15.52392518 139.0244634 -15.53033359 136.23737536 -15.53828239 133.45025444 C-15.56602089 123.72283011 -15.57828951 113.99552898 -15.57592773 104.26806641 C-15.57412476 95.20652693 -15.60579724 86.14552287 -15.65315872 77.0841189 C-15.69240205 69.29794011 -15.70847879 61.51193624 -15.70656151 53.72565931 C-15.70579717 49.07796765 -15.71431602 44.43075223 -15.74609566 39.78315926 C-15.77516981 35.41212745 -15.77535741 31.04202625 -15.75354576 26.67096138 C-15.75041213 25.06938821 -15.75747444 23.46775677 -15.77562714 21.86628342 C-15.91976303 8.26671934 -15.91976303 8.26671934 -12.09947205 3.66844177 C-8.16603179 -0.00769307 -5.3571021 -0.00907983 0 0 Z " fill="#3135BE" transform="translate(123.02001953125,152.886474609375)"></path>
<path d="M0 0 C2.12018013 -0.36914349 2.12018013 -0.36914349 4.7961731 -0.36076355 C6.31484482 -0.36694954 6.31484482 -0.36694954 7.86419678 -0.3732605 C9.53654388 -0.35708176 9.53654388 -0.35708176 11.24267578 -0.34057617 C12.4133963 -0.34101425 13.58411682 -0.34145233 14.79031372 -0.34190369 C18.00512443 -0.34016874 21.21954604 -0.32509825 24.43427896 -0.30418181 C27.79217757 -0.28545894 31.15008338 -0.28366805 34.50802612 -0.28010559 C40.86874132 -0.27077216 47.22930228 -0.24614098 53.58994949 -0.21605712 C60.83046511 -0.18255335 68.07098801 -0.16603726 75.31156182 -0.15097082 C90.2077939 -0.11959243 105.10388154 -0.06680689 120 0 C120.04753418 0.74185547 120.09506836 1.48371094 120.14404297 2.24804688 C120.25449951 3.71854492 120.25449951 3.71854492 120.3671875 5.21875 C120.46942627 6.6718457 120.46942627 6.6718457 120.57373047 8.15429688 C121.21523406 12.43686607 122.84936635 16.00477877 126 19 C132.85242671 23.0286005 140.09475026 22.45497974 147.83984375 22.43359375 C149.29041283 22.43816179 150.74097975 22.44346921 152.19154358 22.44947815 C155.22340722 22.45838406 158.25500709 22.4560152 161.28686523 22.44604492 C165.15480124 22.43455892 169.02182376 22.45477277 172.88963985 22.48396206 C175.88299759 22.50238826 178.87613899 22.50201894 181.86953926 22.49632454 C183.2947677 22.4961721 184.72001153 22.5021517 186.14518547 22.51461601 C194.13217281 22.57463727 200.25772801 22.52845274 207 18 C210.42117904 13.70159556 211.18084532 10.69672858 211.59765625 5.25390625 C211.67636963 4.26849854 211.75508301 3.28309082 211.83618164 2.26782227 C211.8902417 1.51944092 211.94430176 0.77105957 212 0 C227.46382469 -0.07004311 242.92763754 -0.1229651 258.39158344 -0.15543652 C265.57157503 -0.1709135 272.75146811 -0.19201875 279.93139648 -0.22631836 C286.18853593 -0.25619545 292.44560406 -0.27556896 298.70281285 -0.28226548 C302.01680872 -0.28618068 305.33055263 -0.29696488 308.64449501 -0.31719017 C312.34165335 -0.3388635 316.0383844 -0.3419711 319.7355957 -0.34057617 C320.83754776 -0.351362 321.93949982 -0.36214783 323.07484436 -0.3732605 C324.58295685 -0.36707451 324.58295685 -0.36707451 326.12153625 -0.36076355 C326.9963178 -0.36352893 327.87109934 -0.36629431 328.77238941 -0.36914349 C331 0 331 0 332.78146648 1.29598522 C334.90842406 4.27035326 334.42804432 7.53947271 334 11 C332.45372261 18.99606505 328.37440748 24.65486487 321.94140625 29.57421875 C318.08370101 32.11928327 315.70348496 33.05930301 311 34 C311 26.41 311 18.82 311 11 C299.45 11 287.9 11 276 11 C276 18.59 276 26.18 276 34 C272.37 34 268.74 34 265 34 C265 26.41 265 18.82 265 11 C253.45 11 241.9 11 230 11 C230 18.92 230 26.84 230 35 C203.18327543 35.06948318 176.36657259 35.12300249 149.54977608 35.15543652 C137.0979315 35.17089729 124.64614393 35.1919718 112.19433594 35.22631836 C101.33979245 35.25624478 90.48529026 35.27558074 79.63070667 35.28226548 C73.88470464 35.28617222 68.13882073 35.29533733 62.3928566 35.31719017 C56.98058576 35.33760645 51.5684813 35.34382337 46.15617561 35.33932304 C44.17369621 35.34014594 42.19121104 35.34608081 40.20876503 35.35761642 C15.45244147 35.49456115 15.45244147 35.49456115 5.20703125 25.5234375 C-0.25518321 19.2781445 -2.59742532 13.42329261 -2.37109375 5.12890625 C-2 3 -2 3 0 0 Z " fill="#FBFBFD" transform="translate(76,362)"></path>
<path d="M0 0 C23.1 0 46.2 0 70 0 C70 19.47 70 38.94 70 59 C60.43 59 50.86 59 41 59 C41 70.22 41 81.44 41 93 C21.86 93 2.72 93 -17 93 C-17 114.12 -17 135.24 -17 157 C-20.96 157 -24.92 157 -29 157 C-29 132.25 -29 107.5 -29 82 C-9.86 82 9.28 82 29 82 C29 74.08 29 66.16 29 58 C19.43 58 9.86 58 0 58 C0 38.86 0 19.72 0 0 Z " fill="#3135BE" transform="translate(300,48)"></path>
<path d="M0 0 C23.1 0 46.2 0 70 0 C70 19.14 70 38.28 70 58 C60.43 58 50.86 58 41 58 C41 65.92 41 73.84 41 82 C60.14 82 79.28 82 99 82 C99 106.75 99 131.5 99 157 C95.04 157 91.08 157 87 157 C87 135.88 87 114.76 87 93 C67.86 93 48.72 93 29 93 C29 81.78 29 70.56 29 59 C19.43 59 9.86 59 0 59 C0 39.53 0 20.06 0 0 Z " fill="#3135BE" transform="translate(114,48)"></path>
<path d="M0 0 C23.1 0 46.2 0 70 0 C70 19.14 70 38.28 70 58 C60.43 58 50.86 58 41 58 C41 90.67 41 123.34 41 157 C37.04 157 33.08 157 29 157 C29 124.33 29 91.66 29 58 C19.43 58 9.86 58 0 58 C0 38.86 0 19.72 0 0 Z " fill="#3135BE" transform="translate(207,48)"></path>
<path d="M0 0 C1.084021 0.00523682 2.16804199 0.01047363 3.28491211 0.01586914 C4.45473633 0.0190918 5.62456055 0.02231445 6.82983398 0.02563477 C8.0615332 0.03401367 9.29323242 0.04239258 10.56225586 0.05102539 C12.41560547 0.05779297 12.41560547 0.05779297 14.30639648 0.06469727 C17.37089703 0.07652931 20.43530307 0.09301366 23.49975586 0.11352539 C24.14666508 1.71725849 24.7922435 3.32152845 25.43725586 4.92602539 C25.97672852 6.26600586 25.97672852 6.26600586 26.52709961 7.63305664 C27.23589072 9.44061629 27.88578056 11.27159949 28.49975586 13.11352539 C30.33218543 14.25341187 30.33218543 14.25341187 32.61303711 15.12133789 C33.44899414 15.4680957 34.28495117 15.81485352 35.14624023 16.17211914 C36.02602539 16.5240332 36.90581055 16.87594727 37.81225586 17.23852539 C38.68043945 17.59817383 39.54862305 17.95782227 40.44311523 18.32836914 C45.84590455 20.62239955 45.84590455 20.62239955 51.49975586 22.11352539 C53.78570747 21.11242984 53.78570747 21.11242984 55.99975586 19.61352539 C59.97847295 17.05188562 59.97847295 17.05188562 62.39306641 17.33740234 C66.67111257 18.91347243 69.62931104 22.64602565 72.81225586 25.80102539 C73.56571289 26.50936523 74.31916992 27.21770508 75.09545898 27.94750977 C80.47901994 33.26236529 80.47901994 33.26236529 80.58178711 37.48071289 C79.49975586 40.11352539 79.49975586 40.11352539 77.87475586 42.55102539 C76.37717129 45.34197846 76.24926344 46.93482618 76.84350586 50.02758789 C77.98515313 53.65639527 79.71562418 57.01987851 81.35522461 60.44555664 C82.77575568 63.75689698 83.26145502 66.53901287 83.49975586 70.11352539 C85.38777669 70.56925456 87.27579753 71.02498372 89.16381836 71.48071289 C91.97638319 72.24264517 94.73534714 73.19205582 97.49975586 74.11352539 C97.49975586 82.36352539 97.49975586 90.61352539 97.49975586 99.11352539 C89.57975586 99.11352539 81.65975586 99.11352539 73.49975586 99.11352539 C73.54100586 96.37040039 73.58225586 93.62727539 73.62475586 90.80102539 C73.70431043 71.51768871 68.14892937 56.01879793 54.74975586 41.80102539 C41.25273077 28.98193306 25.40453276 24.3663901 7.21484375 24.58984375 C-0.6241241 24.85903822 -7.30206212 25.822049 -14.50024414 29.11352539 C-15.44641602 29.53762695 -16.39258789 29.96172852 -17.36743164 30.39868164 C-24.41070815 33.90080943 -29.95272099 38.58503319 -35.50024414 44.11352539 C-36.45737305 45.03584961 -36.45737305 45.03584961 -37.43383789 45.97680664 C-49.11324986 58.12443557 -52.77162801 74.14095706 -52.68774414 90.48852539 C-52.62586914 93.33477539 -52.56399414 96.18102539 -52.50024414 99.11352539 C-60.42024414 99.11352539 -68.34024414 99.11352539 -76.50024414 99.11352539 C-76.50024414 90.86352539 -76.50024414 82.61352539 -76.50024414 74.11352539 C-67.50024414 70.73852539 -67.50024414 70.73852539 -62.50024414 70.11352539 C-62.40227539 69.56825195 -62.30430664 69.02297852 -62.20336914 68.46118164 C-61.35907392 64.20331348 -60.29864622 60.42010396 -58.43774414 56.48852539 C-56.66557224 52.63655929 -55.50024414 49.42803936 -55.50024414 45.11352539 C-56.35291604 43.26584632 -56.35291604 43.26584632 -57.50024414 41.48852539 C-59.50024414 38.11352539 -59.50024414 38.11352539 -59.34130859 35.65405273 C-57.80456234 31.01214228 -54.10543573 28.10538517 -50.68774414 24.73852539 C-49.96264648 23.98958008 -49.23754883 23.24063477 -48.49047852 22.46899414 C-47.78600586 21.76645508 -47.0815332 21.06391602 -46.35571289 20.34008789 C-45.7127124 19.6963623 -45.06971191 19.05263672 -44.40722656 18.3894043 C-42.50024414 17.11352539 -42.50024414 17.11352539 -40.38427734 17.34887695 C-37.62404231 18.46913821 -35.08887918 19.90511883 -32.50024414 21.37133789 C-30.01524187 22.2935067 -28.95972304 22.02426312 -26.50024414 21.11352539 C-24.61140448 20.15253679 -22.72456933 19.18703886 -20.85571289 18.18774414 C-18.50024414 17.11352539 -18.50024414 17.11352539 -15.67602539 16.38305664 C-12.59381245 15.57238114 -10.19743112 14.82636921 -7.50024414 13.11352539 C-5.41877036 9.24867835 -4.46641764 5.37112993 -3.50024414 1.11352539 C-2.50024414 0.11352539 -2.50024414 0.11352539 0 0 Z " fill="#FBFBFD" transform="translate(231.500244140625,227.886474609375)"></path>
<path d="M0 0 C12.79565313 7.13298055 22.72742409 17.88455912 27.328125 31.96484375 C29.25778107 40.33905631 29.40559366 50.40496911 27.328125 58.71484375 C19.408125 58.71484375 11.488125 58.71484375 3.328125 58.71484375 C3.658125 56.40484375 3.988125 54.09484375 4.328125 51.71484375 C5.13563064 42.31600763 3.42303609 35.50472655 -2.296875 27.96484375 C-7.90091148 22.02871622 -13.95854695 19.52248573 -22.03833008 19.17358398 C-30.28417114 19.09603689 -36.37093065 19.76190113 -42.5546875 25.4453125 C-48.37102608 31.54151675 -51.86784613 37.82158366 -51.984375 46.33984375 C-51.86351748 50.57621789 -51.27889335 54.46571533 -50.671875 58.71484375 C-58.591875 58.71484375 -66.511875 58.71484375 -74.671875 58.71484375 C-77.78465068 46.26374101 -76.03742446 33.01371004 -70.09375 21.71484375 C-61.94236562 8.20263901 -50.65392764 0.42204272 -35.671875 -4.28515625 C-24.21375139 -8.10453079 -10.50885019 -5.05469549 0 0 Z " fill="#FBFBFD" transform="translate(265.671875,268.28515625)"></path>
<path d="M0 0 C15.18 0 30.36 0 46 0 C46 11.55 46 23.1 46 35 C30.82 35 15.64 35 0 35 C0 23.45 0 11.9 0 0 Z " fill="#FBFBFE" transform="translate(312,60)"></path>
<path d="M0 0 C15.18 0 30.36 0 46 0 C46 11.55 46 23.1 46 35 C30.82 35 15.64 35 0 35 C0 23.45 0 11.9 0 0 Z " fill="#FCFCFE" transform="translate(219,60)"></path>
<path d="M0 0 C15.18 0 30.36 0 46 0 C46 11.55 46 23.1 46 35 C30.82 35 15.64 35 0 35 C0 23.45 0 11.9 0 0 Z " fill="#FBFBFE" transform="translate(126,60)"></path>
<path d="M0 0 C4.63072381 2.89798566 7.98146416 5.45039213 9.515625 10.87109375 C10.1230009 16.08051011 10.12859706 20.20759402 8.30078125 25.16796875 C4.41646729 28.93787796 1.39195996 28.65568544 -3.8828125 28.69140625 C-5.07132813 28.66820312 -6.25984375 28.645 -7.484375 28.62109375 C-8.67289063 28.64429688 -9.86140625 28.6675 -11.0859375 28.69140625 C-19.70151639 28.63306147 -19.70151639 28.63306147 -23.265625 25.1640625 C-25.2910383 19.69155157 -25.62471371 14.35617386 -23.7890625 8.74609375 C-19.3453302 0.08268289 -8.93562784 -4.06037177 0 0 Z " fill="#FBFBFD" transform="translate(249.484375,299.12890625)"></path>
<path d="M0 0 C23.1 0 46.2 0 70 0 C70 8 70 8 68.88549805 9.97573853 C66.14558874 11.4641429 63.94362099 11.38155998 60.83203125 11.38818359 C59.56061279 11.39764008 58.28919434 11.40709656 56.97924805 11.4168396 C55.59032887 11.41146991 54.20141252 11.40531696 52.8125 11.3984375 C51.38907726 11.40045839 49.96565553 11.40336995 48.54223633 11.40713501 C45.55963276 11.41155771 42.57729879 11.40512935 39.59472656 11.39111328 C35.77114909 11.37402103 31.94820334 11.38386255 28.12464905 11.40183067 C25.18553913 11.41267019 22.24657903 11.40922149 19.3074646 11.4014473 C17.89765346 11.39944573 16.48782872 11.40190306 15.07803345 11.40888596 C13.10801452 11.41650223 11.13794791 11.40283579 9.16796875 11.38818359 C8.04672607 11.38579681 6.9254834 11.38341003 5.77026367 11.38095093 C3 11 3 11 1.11450195 9.97573853 C0 8 0 8 0 0 Z " fill="#FDFDFE" transform="translate(207,362)"></path>
<path d="M0 0 C7.92 0 15.84 0 24 0 C24 3.96 24 7.92 24 12 C16.08 12 8.16 12 0 12 C0 8.04 0 4.08 0 0 Z " fill="#3B3FC1" transform="translate(323,71)"></path>
<path d="M0 0 C7.92 0 15.84 0 24 0 C24 3.96 24 7.92 24 12 C16.08 12 8.16 12 0 12 C0 8.04 0 4.08 0 0 Z " fill="#3B3FC1" transform="translate(230,71)"></path>
<path d="M0 0 C7.92 0 15.84 0 24 0 C24 3.96 24 7.92 24 12 C16.08 12 8.16 12 0 12 C0 8.04 0 4.08 0 0 Z " fill="#3B3FC1" transform="translate(137,71)"></path>
<path d="M0 0 C3.96 0 7.92 0 12 0 C12 3.96 12 7.92 12 12 C8.04 12 4.08 12 0 12 C0 8.04 0 4.08 0 0 Z " fill="#EEEFF9" transform="translate(364,385)"></path>
<path d="M0 0 C3.96 0 7.92 0 12 0 C12 3.96 12 7.92 12 12 C8.04 12 4.08 12 0 12 C0 8.04 0 4.08 0 0 Z " fill="#EFEFFA" transform="translate(317,385)"></path>
</svg></svg></g></g></svg></g></svg>